<?xml version="1.0" encoding="UTF-8" standalone="no"?>
<svg
   xmlns:osb="http://www.openswatchbook.org/uri/2009/osb"
   xmlns:dc="http://purl.org/dc/elements/1.1/"
   xmlns:cc="http://creativecommons.org/ns#"
   xmlns:rdf="http://www.w3.org/1999/02/22-rdf-syntax-ns#"
   xmlns:svg="http://www.w3.org/2000/svg"
   xmlns="http://www.w3.org/2000/svg"
   xmlns:sodipodi="http://sodipodi.sourceforge.net/DTD/sodipodi-0.dtd"
   xmlns:inkscape="http://www.inkscape.org/namespaces/inkscape"
   width="340.00696mm"
   height="156.99115mm"
   viewBox="0 0 340.00695 156.99115"
   version="1.1"
   id="svg8"
   inkscape:version="1.0.2 (e86c870879, 2021-01-15, custom)"
   sodipodi:docname="caixab_logo_só_letras.svg">
  <defs
     id="defs2">
    <linearGradient
       id="linearGradient2872"
       osb:paint="solid">
      <stop
         style="stop-color:#000000;stop-opacity:1;"
         offset="0"
         id="stop2870" />
    </linearGradient>
    <linearGradient
       id="linearGradient948"
       osb:paint="solid">
      <stop
         style="stop-color:#000000;stop-opacity:1;"
         offset="0"
         id="stop946" />
    </linearGradient>
    <linearGradient
       id="linearGradient845"
       osb:paint="solid">
      <stop
         style="stop-color:#000000;stop-opacity:1;"
         offset="0"
         id="stop843" />
    </linearGradient>
    <inkscape:perspective
       sodipodi:type="inkscape:persp3d"
       inkscape:vp_x="0 : 8.4911507 : 1"
       inkscape:vp_y="0 : 1000 : 0"
       inkscape:vp_z="210 : 8.4911507 : 1"
       inkscape:persp3d-origin="105 : -41.008854 : 1"
       id="perspective1111" />
    <linearGradient
       id="linearGradient837"
       osb:paint="solid">
      <stop
         style="stop-color:#0000ff;stop-opacity:0;"
         offset="0"
         id="stop835" />
    </linearGradient>
  </defs>
  <sodipodi:namedview
     id="base"
     pagecolor="#ffffff"
     bordercolor="#666666"
     borderopacity="1.0"
     inkscape:pageopacity="0.0"
     inkscape:pageshadow="2"
     inkscape:zoom="0.90935259"
     inkscape:cx="825.99387"
     inkscape:cy="280.2934"
     inkscape:document-units="mm"
     inkscape:current-layer="layer1"
     inkscape:document-rotation="0"
     showgrid="false"
     inkscape:window-width="2560"
     inkscape:window-height="1377"
     inkscape:window-x="2552"
     inkscape:window-y="-8"
     inkscape:window-maximized="1"
     inkscape:snap-object-midpoints="false"
     inkscape:snap-others="false"
     inkscape:snap-midpoints="false" />
  <metadata
     id="metadata5">
    <rdf:RDF>
      <cc:Work
         rdf:about="">
        <dc:format>image/svg+xml</dc:format>
        <dc:type
           rdf:resource="http://purl.org/dc/dcmitype/StillImage" />
        <dc:title />
      </cc:Work>
    </rdf:RDF>
  </metadata>
  <g
     inkscape:label="Capa 1"
     inkscape:groupmode="layer"
     id="layer1"
     transform="translate(59.511405,-55.88475)">
    <g
       aria-label="CaixaB"
       id="text850"
       style="font-size:42.5886px;line-height:1.25;font-family:Movellan;-inkscape-font-specification:Movellan;fill:#000000;stroke-width:1.06472"
       transform="matrix(3.6862246,0,0,3.6862246,-255.21054,-730.36108)">
      <path
         d="m 56.634898,255.88158 q -1.476461,0 -2.505824,-1.03976 -1.03976,-1.03976 -1.03976,-2.50583 v -35.48703 q 0,-1.46606 1.03976,-2.50583 1.029363,-1.05015 2.505824,-1.05015 h 3.545584 q 2.942523,0 5.022044,2.08992 2.079522,2.07952 2.079522,5.01164 v 7.10157 h -3.545584 v -7.10157 q 0,-1.46606 -1.050159,-2.50582 -1.039761,-1.03976 -2.505823,-1.03976 h -1.767593 q -0.738231,0 -1.258111,0.51988 -0.51988,0.51988 -0.51988,1.24771 V 250.558 q 0,0.73823 0.51988,1.25811 0.51988,0.51988 1.258111,0.51988 h 1.767593 q 1.466062,0 2.505823,-1.03976 1.050159,-1.03976 1.050159,-2.50582 v -7.10157 h 3.545584 v 7.10157 q 0,2.93212 -2.079522,5.01165 -2.079521,2.07952 -5.022044,2.07952 z"
         style="fill:#000000;stroke-width:1.06472"
         id="path850" />
      <path
         d="m 77.918799,252.33599 q 1.466063,0 2.505824,-1.03976 1.050158,-1.03976 1.050158,-2.50582 v -10.64715 h -5.323575 q -0.73823,0 -1.25811,0.51988 -0.519881,0.51988 -0.519881,1.24771 V 250.558 q 0,0.73823 0.519881,1.25811 0.51988,0.51988 1.25811,0.51988 z m -3.545584,3.54559 q -1.47646,0 -2.505823,-1.03976 -1.039761,-1.03976 -1.039761,-2.50583 v -14.19273 q 0,-1.46606 1.039761,-2.50583 1.029363,-1.05015 2.505823,-1.05015 h 7.101566 q 0,-1.46607 -1.050158,-2.49543 -1.039761,-1.05016 -2.505824,-1.05016 h -7.091168 v -3.54558 h 7.091168 q 2.942523,0 5.022045,2.07952 2.079521,2.07952 2.079521,5.01165 v 21.2943 h -3.545584 v -0.92539 q -1.590834,0.92539 -3.555982,0.92539 z"
         style="fill:#000000;stroke-width:1.06472"
         id="path852" />
      <path
         d="m 88.565948,255.88158 v -28.38547 h 3.545585 v 28.38547 z m 0,-31.94145 v -3.54559 h 3.545585 v 3.54559 z"
         style="fill:#000000;stroke-width:1.06472"
         id="path854" />
      <path
         d="m 95.657116,255.88158 v -17.73832 q 0,-2.42264 1.403677,-4.26302 -0.187157,-0.14557 -0.363916,-0.33272 -1.039761,-1.02937 -1.039761,-2.50583 v -3.54558 H 99.2027 v 1.76759 q 0,0.73823 0.51988,1.25811 0.51988,0.51988 1.25811,0.51988 h 1.76759 q 1.46607,0 2.50583,-1.03976 1.05016,-1.03976 1.05016,-2.50582 h 3.54558 q 0,2.42264 -1.41407,4.26302 0.19755,0.14556 0.37431,0.32232 1.03976,1.03976 1.03976,2.50583 v 21.2943 h -3.54558 v -19.51631 q 0,-0.72784 -0.51988,-1.25811 -0.53028,-0.51988 -1.25811,-0.51988 h -1.778 q -1.46606,0 -2.50582,1.05015 -1.03976,1.03977 -1.03976,2.50583 v 17.73832 z"
         style="fill:#000000;stroke-width:1.06472"
         id="path856" />
      <path
         d="m 120.4866,252.33599 q 1.46607,0 2.50583,-1.03976 1.05016,-1.03976 1.05016,-2.50582 v -10.64715 h -5.32358 q -0.73823,0 -1.25811,0.51988 -0.51988,0.51988 -0.51988,1.24771 V 250.558 q 0,0.73823 0.51988,1.25811 0.51988,0.51988 1.25811,0.51988 z m -3.54558,3.54559 q -1.47646,0 -2.50582,-1.03976 -1.03976,-1.03976 -1.03976,-2.50583 v -14.19273 q 0,-1.46606 1.03976,-2.50583 1.02936,-1.05015 2.50582,-1.05015 h 7.10157 q 0,-1.46607 -1.05016,-2.49543 -1.03976,-1.05016 -2.50583,-1.05016 h -7.09116 v -3.54558 h 7.09116 q 2.94253,0 5.02205,2.07952 2.07952,2.07952 2.07952,5.01165 v 21.2943 h -3.54558 v -0.92539 q -1.59084,0.92539 -3.55599,0.92539 z"
         style="fill:#000000;stroke-width:1.06472"
         id="path858" />
      <path
         d="m 138.22492,252.33599 q 1.46607,0 2.50583,-1.03976 1.05015,-1.03976 1.05015,-2.50582 v -10.64715 q 0,-1.46606 -1.05015,-2.50583 -1.03976,-1.05015 -2.50583,-1.05015 h -3.54558 V 250.558 q 0,0.73823 0.51988,1.25811 0.51988,0.51988 1.25811,0.51988 z m 0,-21.2943 q 1.46607,0 2.50583,-1.03976 1.05015,-1.03976 1.05015,-2.50582 v -7.10157 q 0,-1.46606 -1.05015,-2.50582 -1.03976,-1.03976 -2.50583,-1.03976 h -1.76759 q -0.73823,0 -1.25811,0.51988 -0.51988,0.51988 -0.51988,1.24771 v 10.64715 q 0,0.73823 0.51988,1.25811 0.51988,0.51988 1.25811,0.51988 z m -3.54558,24.83989 q -1.47646,0 -2.50582,-1.03976 -1.03977,-1.03976 -1.03977,-2.50583 v -35.48703 q 0,-1.46606 1.03977,-2.50583 1.02936,-1.05015 2.50582,-1.05015 h 3.54558 q 2.94253,0 5.02205,2.08992 2.07952,2.07952 2.07952,5.01164 v 7.10157 q 0,2.93212 -2.07952,5.01164 -0.15597,0.16637 -0.32233,0.31193 0.16636,0.14557 0.32233,0.30153 2.07952,2.07953 2.07952,5.02205 v 10.64715 q 0,2.93212 -2.07952,5.01165 -2.07952,2.07952 -5.02205,2.07952 z"
         style="fill:#000000;stroke-width:1.06472"
         id="path860" />
    </g>
  </g>
</svg>
