<?xml version="1.0" encoding="UTF-8" standalone="no"?>
<svg
   xmlns:osb="http://www.openswatchbook.org/uri/2009/osb"
   xmlns:dc="http://purl.org/dc/elements/1.1/"
   xmlns:cc="http://creativecommons.org/ns#"
   xmlns:rdf="http://www.w3.org/1999/02/22-rdf-syntax-ns#"
   xmlns:svg="http://www.w3.org/2000/svg"
   xmlns="http://www.w3.org/2000/svg"
   xmlns:sodipodi="http://sodipodi.sourceforge.net/DTD/sodipodi-0.dtd"
   xmlns:inkscape="http://www.inkscape.org/namespaces/inkscape"
   width="203.26945mm"
   height="268.88666mm"
   viewBox="0 0 203.26945 268.88666"
   version="1.1"
   id="svg8"
   inkscape:version="1.0.2 (e86c870879, 2021-01-15, custom)"
   sodipodi:docname="caixab_logo.svg">
  <defs
     id="defs2">
    <linearGradient
       id="linearGradient2872"
       osb:paint="solid">
      <stop
         style="stop-color:#000000;stop-opacity:1;"
         offset="0"
         id="stop2870" />
    </linearGradient>
    <linearGradient
       id="linearGradient948"
       osb:paint="solid">
      <stop
         style="stop-color:#000000;stop-opacity:1;"
         offset="0"
         id="stop946" />
    </linearGradient>
    <linearGradient
       id="linearGradient845"
       osb:paint="solid">
      <stop
         style="stop-color:#000000;stop-opacity:1;"
         offset="0"
         id="stop843" />
    </linearGradient>
    <inkscape:perspective
       sodipodi:type="inkscape:persp3d"
       inkscape:vp_x="0 : 120.38666 : 1"
       inkscape:vp_y="0 : 999.99999 : 0"
       inkscape:vp_z="210 : 120.38666 : 1"
       inkscape:persp3d-origin="105 : 70.886656 : 1"
       id="perspective1111" />
    <linearGradient
       id="linearGradient837"
       osb:paint="solid">
      <stop
         style="stop-color:#0000ff;stop-opacity:0;"
         offset="0"
         id="stop835" />
    </linearGradient>
  </defs>
  <sodipodi:namedview
     id="base"
     pagecolor="#ffffff"
     bordercolor="#666666"
     borderopacity="1.0"
     inkscape:pageopacity="0.0"
     inkscape:pageshadow="2"
     inkscape:zoom="0.90935259"
     inkscape:cx="587.57606"
     inkscape:cy="423.16939"
     inkscape:document-units="mm"
     inkscape:current-layer="layer1"
     inkscape:document-rotation="0"
     showgrid="false"
     inkscape:window-width="2560"
     inkscape:window-height="1377"
     inkscape:window-x="2552"
     inkscape:window-y="-8"
     inkscape:window-maximized="1"
     inkscape:snap-object-midpoints="false"
     inkscape:snap-others="false"
     inkscape:snap-midpoints="false" />
  <metadata
     id="metadata5">
    <rdf:RDF>
      <cc:Work
         rdf:about="">
        <dc:format>image/svg+xml</dc:format>
        <dc:type
           rdf:resource="http://purl.org/dc/dcmitype/StillImage" />
        <dc:title />
      </cc:Work>
    </rdf:RDF>
  </metadata>
  <g
     inkscape:label="Capa 1"
     inkscape:groupmode="layer"
     id="layer1"
     transform="translate(-3.5699752,-18.082145)">
    <path
       id="rect3167"
       style="fill:#000000;fill-opacity:1;fill-rule:evenodd;stroke:#000000;stroke-width:0.250253;stroke-linecap:round;stroke-linejoin:round;stroke-miterlimit:4;stroke-dasharray:none;stroke-dashoffset:0"
       d="m 25.1296,18.207271 c -11.874615,0 -21.4344983,9.5599 -21.4344983,21.434483 V 265.40918 c 0,11.87462 9.5598833,21.43451 21.4344983,21.43451 h 160.15022 c 11.87461,0 21.43448,-9.55989 21.43448,-21.43451 V 39.641754 c 0,-11.874583 -9.55987,-21.434483 -21.43448,-21.434483 z M 35.992497,36.42889 H 174.41691 c 10.26369,0 18.52593,8.263678 18.52593,18.527376 V 250.09616 c 0,10.2637 -8.26224,18.5259 -18.52593,18.5259 H 35.992497 c -10.263701,0 -18.525905,-8.2622 -18.525905,-18.5259 V 54.956266 c 0,-10.263698 8.262204,-18.527376 18.525905,-18.527376 z" />
    <path
       id="rect906"
       style="fill:#000000;fill-rule:evenodd;stroke:#000000;stroke-width:0.122292;stroke-linecap:round;stroke-linejoin:round;stroke-miterlimit:4;stroke-dasharray:none;stroke-dashoffset:0"
       d="m 61.100782,121.52243 c -4.40456,0 -7.950325,7.43769 -7.950325,16.6763 v 48.05964 1.96926 10.05026 c 0,3.67027 2.081276,6.6249 4.666715,6.6249 h 3.28361 7.59292 3.283611 c 2.585423,0 4.666729,-2.95463 4.666729,-6.6249 v -10.05026 -1.96926 -48.05964 c 0,-9.23861 -3.54578,-16.6763 -7.95034,-16.6763 z" />
    <path
       id="rect2938"
       style="fill:#000000;fill-opacity:1;fill-rule:evenodd;stroke:#000000;stroke-width:0.0422796;stroke-linecap:round;stroke-linejoin:round;stroke-miterlimit:4;stroke-dasharray:none;stroke-dashoffset:0"
       d="m 130.14428,109.85466 c -1.2747,-0.0112 -2.22687,1.17864 -2.30703,2.38123 -0.0143,1.35304 -0.006,2.70679 -0.006,4.06035 a 5.758749,5.6482407 0 0 1 2.31299,-0.47512 5.758749,5.6482407 0 0 1 2.31297,0.47655 c -8.4e-4,-1.19669 0.002,-2.39307 0.005,-3.58967 0.12303,-1.35028 -0.86872,-2.86483 -2.31741,-2.85334 z" />
    <path
       id="rect3019-3"
       style="fill:#000000;fill-opacity:1;fill-rule:evenodd;stroke:#000000;stroke-width:0.144336;stroke-linecap:round;stroke-linejoin:round;stroke-miterlimit:4;stroke-dasharray:none;stroke-dashoffset:0"
       d="m 130.15134,105.19171 c 10.01037,0 18.06926,7.91358 18.06926,17.74342 0,9.8299 -8.05889,17.74345 -18.06926,17.74345 -10.01035,0 -18.06924,-7.91355 -18.06924,-17.74345 0,-9.82984 8.05889,-17.74342 18.06924,-17.74342 z m 0,-9.083619 c 15.00984,0 27.09355,11.964859 27.09355,26.827039 0,14.86219 -12.08371,26.82704 -27.09355,26.82704 -15.00982,0 -27.09355,-11.96485 -27.09355,-26.82704 0,-14.86218 12.08373,-26.827039 27.09355,-26.827039 z" />
    <path
       id="rect3019-3-0"
       style="fill:#000000;fill-opacity:1;fill-rule:evenodd;stroke:#000000;stroke-width:0.056396;stroke-linecap:round;stroke-linejoin:round;stroke-miterlimit:4;stroke-dasharray:none;stroke-dashoffset:0"
       d="m 130.15279,116.00572 c 3.28548,-0.0727 6.41832,2.44013 6.95027,5.70245 0.62989,3.11993 -1.244,6.46576 -4.19708,7.62004 -3.09977,1.3456 -7.06056,0.13226 -8.79404,-2.78948 -1.75399,-2.72477 -1.17491,-6.63262 1.28899,-8.7362 1.29117,-1.15994 3.01803,-1.8045 4.75186,-1.79681 z m 0,-3.54923 c 4.40279,-0.0656 8.66624,2.90675 10.03175,7.11318 1.41803,4.01672 0.063,8.81765 -3.29041,11.46313 -3.62701,3.05573 -9.31419,3.18359 -13.08301,0.31058 -3.43528,-2.45522 -5.03228,-7.10436 -3.87903,-11.15598 1.10735,-4.31729 5.23959,-7.56002 9.67434,-7.71737 0.18195,-0.006 0.36407,-0.014 0.54636,-0.014 z" />
    <circle
       style="fill:#000000;fill-rule:evenodd;stroke-width:0.979899"
       id="path3164"
       cx="130.15137"
       cy="122.93509"
       r="4.9691529" />
    <rect
       style="fill:#000000;fill-opacity:1;fill-rule:evenodd;stroke:#000000;stroke-width:0.17633;stroke-linecap:round;stroke-linejoin:round;stroke-miterlimit:4;stroke-dasharray:none;stroke-dashoffset:0"
       id="rect3214-7"
       width="23.521603"
       height="48.071434"
       x="183.22966"
       y="202.50491"
       rx="0"
       ry="10.205107" />
    <rect
       style="fill:#000000;fill-opacity:1;fill-rule:evenodd;stroke:#000000;stroke-width:0.17633;stroke-linecap:round;stroke-linejoin:round;stroke-miterlimit:4;stroke-dasharray:none;stroke-dashoffset:0"
       id="rect3214-7-5"
       width="23.521603"
       height="48.071434"
       x="183.22966"
       y="64.646362"
       rx="0"
       ry="10.205107" />
    <path
       id="rect3167-7"
       style="fill:#000000;fill-opacity:1;fill-rule:evenodd;stroke:#000000;stroke-width:0.209092;stroke-linecap:round;stroke-linejoin:round;stroke-miterlimit:4;stroke-dasharray:none;stroke-dashoffset:0"
       d="m 38.300423,40.300049 c -9.921472,0 -17.908935,7.987479 -17.908935,17.90892 V 246.84197 c 0,9.92148 7.987463,17.90894 17.908935,17.90894 H 172.10898 c 9.92147,0 17.90893,-7.98747 17.90893,-17.90894 V 58.208969 c 0,-9.921441 -7.98746,-17.908921 -17.90893,-17.908921 z m -0.05744,0.94012 133.927447,0.1551 c 8.27015,0.0096 16.73605,7.246079 16.7372,16.656575 l 0.023,188.760066 c 8.2e-4,8.57553 -8.22134,16.42075 -16.79677,16.45679 l -133.894433,0.56276 c -9.112848,0.0382 -16.7802,-8.27479 -16.767049,-17.01258 L 21.756365,58.185293 C 22.16025,47.765765 30.688277,41.484049 38.24298,41.240169 Z"
       sodipodi:nodetypes="ssssssssscsssssscc" />
  </g>
</svg>
