<?xml version="1.0" encoding="UTF-8" standalone="no"?>
<svg
   xmlns:osb="http://www.openswatchbook.org/uri/2009/osb"
   xmlns:dc="http://purl.org/dc/elements/1.1/"
   xmlns:cc="http://creativecommons.org/ns#"
   xmlns:rdf="http://www.w3.org/1999/02/22-rdf-syntax-ns#"
   xmlns:svg="http://www.w3.org/2000/svg"
   xmlns="http://www.w3.org/2000/svg"
   xmlns:sodipodi="http://sodipodi.sourceforge.net/DTD/sodipodi-0.dtd"
   xmlns:inkscape="http://www.inkscape.org/namespaces/inkscape"
   width="687.27246mm"
   height="268.88666mm"
   viewBox="0 0 687.27244 268.88666"
   version="1.1"
   id="svg8"
   inkscape:version="1.0.2 (e86c870879, 2021-01-15, custom)"
   sodipodi:docname="caixab_logo_e_letras_horizontal.svg">
  <defs
     id="defs2">
    <linearGradient
       id="linearGradient2872"
       osb:paint="solid">
      <stop
         style="stop-color:#000000;stop-opacity:1;"
         offset="0"
         id="stop2870" />
    </linearGradient>
    <linearGradient
       id="linearGradient948"
       osb:paint="solid">
      <stop
         style="stop-color:#000000;stop-opacity:1;"
         offset="0"
         id="stop946" />
    </linearGradient>
    <linearGradient
       id="linearGradient845"
       osb:paint="solid">
      <stop
         style="stop-color:#000000;stop-opacity:1;"
         offset="0"
         id="stop843" />
    </linearGradient>
    <inkscape:perspective
       sodipodi:type="inkscape:persp3d"
       inkscape:vp_x="0 : 120.38665 : 1"
       inkscape:vp_y="0 : 999.99993 : 0"
       inkscape:vp_z="210 : 120.38665 : 1"
       inkscape:persp3d-origin="105 : 70.886652 : 1"
       id="perspective1111" />
    <linearGradient
       id="linearGradient837"
       osb:paint="solid">
      <stop
         style="stop-color:#0000ff;stop-opacity:0;"
         offset="0"
         id="stop835" />
    </linearGradient>
  </defs>
  <sodipodi:namedview
     id="base"
     pagecolor="#ffffff"
     bordercolor="#666666"
     borderopacity="1.0"
     inkscape:pageopacity="0.0"
     inkscape:pageshadow="2"
     inkscape:zoom="0.4546763"
     inkscape:cx="838.40976"
     inkscape:cy="72.034837"
     inkscape:document-units="mm"
     inkscape:current-layer="layer1"
     inkscape:document-rotation="0"
     showgrid="false"
     inkscape:window-width="2560"
     inkscape:window-height="1377"
     inkscape:window-x="2552"
     inkscape:window-y="-8"
     inkscape:window-maximized="1"
     inkscape:snap-object-midpoints="false"
     inkscape:snap-others="false"
     inkscape:snap-midpoints="false" />
  <metadata
     id="metadata5">
    <rdf:RDF>
      <cc:Work
         rdf:about="">
        <dc:format>image/svg+xml</dc:format>
        <dc:type
           rdf:resource="http://purl.org/dc/dcmitype/StillImage" />
        <dc:title />
      </cc:Work>
    </rdf:RDF>
  </metadata>
  <g
     inkscape:label="Capa 1"
     inkscape:groupmode="layer"
     id="layer1"
     transform="translate(-3.5699752,-18.082145)">
    <path
       id="rect3167"
       style="fill:#000000;fill-opacity:1;fill-rule:evenodd;stroke:#000000;stroke-width:0.250253;stroke-linecap:round;stroke-linejoin:round;stroke-miterlimit:4;stroke-dasharray:none;stroke-dashoffset:0"
       d="m 25.1296,18.207271 c -11.874615,0 -21.4344983,9.5599 -21.4344983,21.434483 V 265.40918 c 0,11.87462 9.5598833,21.43451 21.4344983,21.43451 h 160.15022 c 11.87461,0 21.43448,-9.55989 21.43448,-21.43451 V 39.641754 c 0,-11.874583 -9.55987,-21.434483 -21.43448,-21.434483 z M 35.992497,36.42889 H 174.41691 c 10.26369,0 18.52593,8.263678 18.52593,18.527376 V 250.09616 c 0,10.2637 -8.26224,18.5259 -18.52593,18.5259 H 35.992497 c -10.263701,0 -18.525905,-8.2622 -18.525905,-18.5259 V 54.956266 c 0,-10.263698 8.262204,-18.527376 18.525905,-18.527376 z" />
    <path
       id="rect906"
       style="fill:#000000;fill-rule:evenodd;stroke:#000000;stroke-width:0.122292;stroke-linecap:round;stroke-linejoin:round;stroke-miterlimit:4;stroke-dasharray:none;stroke-dashoffset:0"
       d="m 61.100783,121.81339 c -4.40456,0 -7.950325,7.43769 -7.950325,16.6763 v 48.05964 1.96926 10.05026 c 0,3.67027 2.081276,6.6249 4.666715,6.6249 h 3.28361 7.59292 3.283611 c 2.585423,0 4.666729,-2.95463 4.666729,-6.6249 v -10.05026 -1.96926 -48.05964 c 0,-9.23861 -3.54578,-16.6763 -7.95034,-16.6763 z" />
    <path
       id="rect2938"
       style="fill:#000000;fill-opacity:1;fill-rule:evenodd;stroke:#000000;stroke-width:0.0422796;stroke-linecap:round;stroke-linejoin:round;stroke-miterlimit:4;stroke-dasharray:none;stroke-dashoffset:0"
       d="m 130.14428,109.85466 c -1.2747,-0.0112 -2.22687,1.17864 -2.30703,2.38123 -0.0143,1.35304 -0.006,2.70679 -0.006,4.06035 a 5.758749,5.6482407 0 0 1 2.31299,-0.47512 5.758749,5.6482407 0 0 1 2.31297,0.47655 c -8.4e-4,-1.19669 0.002,-2.39307 0.005,-3.58967 0.12303,-1.35028 -0.86872,-2.86483 -2.31741,-2.85334 z" />
    <path
       id="rect3019-3"
       style="fill:#000000;fill-opacity:1;fill-rule:evenodd;stroke:#000000;stroke-width:0.144336;stroke-linecap:round;stroke-linejoin:round;stroke-miterlimit:4;stroke-dasharray:none;stroke-dashoffset:0"
       d="m 130.15134,105.19171 c 10.01037,0 18.06926,7.91358 18.06926,17.74342 0,9.8299 -8.05889,17.74345 -18.06926,17.74345 -10.01035,0 -18.06924,-7.91355 -18.06924,-17.74345 0,-9.82984 8.05889,-17.74342 18.06924,-17.74342 z m 0,-9.083619 c 15.00984,0 27.09355,11.964859 27.09355,26.827039 0,14.86219 -12.08371,26.82704 -27.09355,26.82704 -15.00982,0 -27.09355,-11.96485 -27.09355,-26.82704 0,-14.86218 12.08373,-26.827039 27.09355,-26.827039 z" />
    <path
       id="rect3019-3-0"
       style="fill:#000000;fill-opacity:1;fill-rule:evenodd;stroke:#000000;stroke-width:0.056396;stroke-linecap:round;stroke-linejoin:round;stroke-miterlimit:4;stroke-dasharray:none;stroke-dashoffset:0"
       d="m 130.15279,116.00572 c 3.28548,-0.0727 6.41832,2.44013 6.95027,5.70245 0.62989,3.11993 -1.244,6.46576 -4.19708,7.62004 -3.09977,1.3456 -7.06056,0.13226 -8.79404,-2.78948 -1.75399,-2.72477 -1.17491,-6.63262 1.28899,-8.7362 1.29117,-1.15994 3.01803,-1.8045 4.75186,-1.79681 z m 0,-3.54923 c 4.40279,-0.0656 8.66624,2.90675 10.03175,7.11318 1.41803,4.01672 0.063,8.81765 -3.29041,11.46313 -3.62701,3.05573 -9.31419,3.18359 -13.08301,0.31058 -3.43528,-2.45522 -5.03228,-7.10436 -3.87903,-11.15598 1.10735,-4.31729 5.23959,-7.56002 9.67434,-7.71737 0.18195,-0.006 0.36407,-0.014 0.54636,-0.014 z" />
    <circle
       style="fill:#000000;fill-rule:evenodd;stroke-width:0.979899"
       id="path3164"
       cx="130.15137"
       cy="122.93509"
       r="4.9691529" />
    <path
       id="rect3214-7"
       style="fill:#000000;fill-opacity:1;fill-rule:evenodd;stroke:#000000;stroke-width:0.17633;stroke-linecap:round;stroke-linejoin:round;stroke-miterlimit:4;stroke-dasharray:none;stroke-dashoffset:0"
       d="m 193.43477,202.50491 h 3.11139 c 5.65363,0 10.2051,4.55148 10.2051,10.20511 v 27.66122 c 0,5.65363 -4.55147,10.20511 -10.2051,10.20511 h -3.11139 c -5.65363,0 -10.20511,-4.55148 -10.20511,-10.20511 v -27.66122 c 0,-5.65363 4.55148,-10.20511 10.20511,-10.20511 z" />
    <path
       id="rect3214-7-5"
       style="fill:#000000;fill-opacity:1;fill-rule:evenodd;stroke:#000000;stroke-width:0.17633;stroke-linecap:round;stroke-linejoin:round;stroke-miterlimit:4;stroke-dasharray:none;stroke-dashoffset:0"
       d="m 193.43477,64.646362 h 3.11139 c 5.65363,0 10.2051,4.551478 10.2051,10.205107 v 27.661221 c 0,5.65363 -4.55147,10.20511 -10.2051,10.20511 h -3.11139 c -5.65363,0 -10.20511,-4.55148 -10.20511,-10.20511 V 74.851469 c 0,-5.653629 4.55148,-10.205107 10.20511,-10.205107 z" />
    <path
       id="rect3167-7"
       style="fill:#000000;fill-opacity:1;fill-rule:evenodd;stroke:#000000;stroke-width:0.209092;stroke-linecap:round;stroke-linejoin:round;stroke-miterlimit:4;stroke-dasharray:none;stroke-dashoffset:0"
       d="m 38.300423,40.300049 c -9.921472,0 -17.908935,7.987479 -17.908935,17.90892 V 246.84197 c 0,9.92148 7.987463,17.90894 17.908935,17.90894 H 172.10898 c 9.92147,0 17.90893,-7.98747 17.90893,-17.90894 V 58.208969 c 0,-9.921441 -7.98746,-17.908921 -17.90893,-17.908921 z m -0.05744,0.94012 133.927447,0.1551 c 8.27015,0.0096 16.73605,7.246079 16.7372,16.656575 l 0.023,188.760066 c 8.2e-4,8.57553 -8.22134,16.42075 -16.79677,16.45679 l -133.894433,0.56276 c -9.112848,0.0382 -16.7802,-8.27479 -16.767049,-17.01258 L 21.756365,58.185293 C 22.16025,47.765765 30.688277,41.484049 38.24298,41.240169 Z"
       sodipodi:nodetypes="ssssssssscsssssscc" />
    <g
       aria-label="CaixaB"
       id="text850"
       style="font-size:42.5886px;line-height:1.25;font-family:Movellan;-inkscape-font-specification:Movellan;fill:#000000;stroke-width:1.06472"
       transform="matrix(5.1730159,0,0,5.1730159,-60.93378,-1036.7107)">
      <path
         d="m 56.634898,255.88158 q -1.476461,0 -2.505824,-1.03976 -1.03976,-1.03976 -1.03976,-2.50583 v -35.48703 q 0,-1.46606 1.03976,-2.50583 1.029363,-1.05015 2.505824,-1.05015 h 3.545584 q 2.942523,0 5.022044,2.08992 2.079522,2.07952 2.079522,5.01164 v 7.10157 h -3.545584 v -7.10157 q 0,-1.46606 -1.050159,-2.50582 -1.039761,-1.03976 -2.505823,-1.03976 h -1.767593 q -0.738231,0 -1.258111,0.51988 -0.51988,0.51988 -0.51988,1.24771 V 250.558 q 0,0.73823 0.51988,1.25811 0.51988,0.51988 1.258111,0.51988 h 1.767593 q 1.466062,0 2.505823,-1.03976 1.050159,-1.03976 1.050159,-2.50582 v -7.10157 h 3.545584 v 7.10157 q 0,2.93212 -2.079522,5.01165 -2.079521,2.07952 -5.022044,2.07952 z"
         style="fill:#000000;stroke-width:1.06472"
         id="path850" />
      <path
         d="m 77.918799,252.33599 q 1.466063,0 2.505824,-1.03976 1.050158,-1.03976 1.050158,-2.50582 v -10.64715 h -5.323575 q -0.73823,0 -1.25811,0.51988 -0.519881,0.51988 -0.519881,1.24771 V 250.558 q 0,0.73823 0.519881,1.25811 0.51988,0.51988 1.25811,0.51988 z m -3.545584,3.54559 q -1.47646,0 -2.505823,-1.03976 -1.039761,-1.03976 -1.039761,-2.50583 v -14.19273 q 0,-1.46606 1.039761,-2.50583 1.029363,-1.05015 2.505823,-1.05015 h 7.101566 q 0,-1.46607 -1.050158,-2.49543 -1.039761,-1.05016 -2.505824,-1.05016 h -7.091168 v -3.54558 h 7.091168 q 2.942523,0 5.022045,2.07952 2.079521,2.07952 2.079521,5.01165 v 21.2943 h -3.545584 v -0.92539 q -1.590834,0.92539 -3.555982,0.92539 z"
         style="fill:#000000;stroke-width:1.06472"
         id="path852" />
      <path
         d="m 88.565948,255.88158 v -28.38547 h 3.545585 v 28.38547 z m 0,-31.94145 v -3.54559 h 3.545585 v 3.54559 z"
         style="fill:#000000;stroke-width:1.06472"
         id="path854" />
      <path
         d="m 95.657116,255.88158 v -17.73832 q 0,-2.42264 1.403677,-4.26302 -0.187157,-0.14557 -0.363916,-0.33272 -1.039761,-1.02937 -1.039761,-2.50583 v -3.54558 H 99.2027 v 1.76759 q 0,0.73823 0.51988,1.25811 0.51988,0.51988 1.25811,0.51988 h 1.76759 q 1.46607,0 2.50583,-1.03976 1.05016,-1.03976 1.05016,-2.50582 h 3.54558 q 0,2.42264 -1.41407,4.26302 0.19755,0.14556 0.37431,0.32232 1.03976,1.03976 1.03976,2.50583 v 21.2943 h -3.54558 v -19.51631 q 0,-0.72784 -0.51988,-1.25811 -0.53028,-0.51988 -1.25811,-0.51988 h -1.778 q -1.46606,0 -2.50582,1.05015 -1.03976,1.03977 -1.03976,2.50583 v 17.73832 z"
         style="fill:#000000;stroke-width:1.06472"
         id="path856" />
      <path
         d="m 120.4866,252.33599 q 1.46607,0 2.50583,-1.03976 1.05016,-1.03976 1.05016,-2.50582 v -10.64715 h -5.32358 q -0.73823,0 -1.25811,0.51988 -0.51988,0.51988 -0.51988,1.24771 V 250.558 q 0,0.73823 0.51988,1.25811 0.51988,0.51988 1.25811,0.51988 z m -3.54558,3.54559 q -1.47646,0 -2.50582,-1.03976 -1.03976,-1.03976 -1.03976,-2.50583 v -14.19273 q 0,-1.46606 1.03976,-2.50583 1.02936,-1.05015 2.50582,-1.05015 h 7.10157 q 0,-1.46607 -1.05016,-2.49543 -1.03976,-1.05016 -2.50583,-1.05016 h -7.09116 v -3.54558 h 7.09116 q 2.94253,0 5.02205,2.07952 2.07952,2.07952 2.07952,5.01165 v 21.2943 h -3.54558 v -0.92539 q -1.59084,0.92539 -3.55599,0.92539 z"
         style="fill:#000000;stroke-width:1.06472"
         id="path858" />
      <path
         d="m 138.22492,252.33599 q 1.46607,0 2.50583,-1.03976 1.05015,-1.03976 1.05015,-2.50582 v -10.64715 q 0,-1.46606 -1.05015,-2.50583 -1.03976,-1.05015 -2.50583,-1.05015 h -3.54558 V 250.558 q 0,0.73823 0.51988,1.25811 0.51988,0.51988 1.25811,0.51988 z m 0,-21.2943 q 1.46607,0 2.50583,-1.03976 1.05015,-1.03976 1.05015,-2.50582 v -7.10157 q 0,-1.46606 -1.05015,-2.50582 -1.03976,-1.03976 -2.50583,-1.03976 h -1.76759 q -0.73823,0 -1.25811,0.51988 -0.51988,0.51988 -0.51988,1.24771 v 10.64715 q 0,0.73823 0.51988,1.25811 0.51988,0.51988 1.25811,0.51988 z m -3.54558,24.83989 q -1.47646,0 -2.50582,-1.03976 -1.03977,-1.03976 -1.03977,-2.50583 v -35.48703 q 0,-1.46606 1.03977,-2.50583 1.02936,-1.05015 2.50582,-1.05015 h 3.54558 q 2.94253,0 5.02205,2.08992 2.07952,2.07952 2.07952,5.01164 v 7.10157 q 0,2.93212 -2.07952,5.01164 -0.15597,0.16637 -0.32233,0.31193 0.16636,0.14557 0.32233,0.30153 2.07952,2.07953 2.07952,5.02205 v 10.64715 q 0,2.93212 -2.07952,5.01165 -2.07952,2.07952 -5.02205,2.07952 z"
         style="fill:#000000;stroke-width:1.06472"
         id="path860" />
    </g>
  </g>
</svg>
