<?xml version="1.0" encoding="UTF-8" standalone="no"?>
<!DOCTYPE svg PUBLIC "-//W3C//DTD SVG 1.0//EN" "http://www.w3.org/TR/2001/PR-SVG-20010719/DTD/svg10.dtd">
<svg width="48cm" height="23cm" viewBox="341 91 941 448" xmlns="http://www.w3.org/2000/svg" xmlns:xlink="http://www.w3.org/1999/xlink">
  <g>
    <rect style="fill: #ffffff" x="702.978" y="275" width="112.7" height="36"/>
    <rect style="fill: none; fill-opacity:0; stroke-width: 2; stroke: #000000" x="702.978" y="275" width="112.7" height="36"/>
    <text font-size="12.8" style="fill: #000000;text-anchor:middle;font-family:monospace;font-style:normal;font-weight:normal" x="759.328" y="297">Transacción</text>
  </g>
  <g>
    <rect style="fill: #ffffff" x="963.484" y="275.064" width="74.2" height="36"/>
    <rect style="fill: none; fill-opacity:0; stroke-width: 2; stroke: #000000" x="963.484" y="275.064" width="74.2" height="36"/>
    <text font-size="12.8" style="fill: #000000;text-anchor:middle;font-family:monospace;font-style:normal;font-weight:normal" x="1000.58" y="297.064">Divisa</text>
  </g>
  <g>
    <rect style="fill: #ffffff" x="1199.52" y="275.022" width="81.9" height="36"/>
    <rect style="fill: none; fill-opacity:0; stroke-width: 2; stroke: #000000" x="1199.52" y="275.022" width="81.9" height="36"/>
    <rect style="fill: none; fill-opacity:0; stroke-width: 2; stroke: #000000" x="1204.52" y="280.022" width="71.9" height="26"/>
    <text font-size="12.8" style="fill: #000000;text-anchor:middle;font-family:monospace;font-style:normal;font-weight:normal" x="1240.47" y="297.022">Céntimo</text>
  </g>
  <g>
    <rect style="fill: #ffffff" x="460.328" y="275.032" width="66.5" height="36"/>
    <rect style="fill: none; fill-opacity:0; stroke-width: 2; stroke: #000000" x="460.328" y="275.032" width="66.5" height="36"/>
    <text font-size="12.8" style="fill: #000000;text-anchor:middle;font-family:monospace;font-style:normal;font-weight:normal" x="493.578" y="297.032">Conta</text>
  </g>
  <g>
    <rect style="fill: #ffffff" x="733.826" y="93.325" width="51.1" height="36"/>
    <rect style="fill: none; fill-opacity:0; stroke-width: 2; stroke: #000000" x="733.826" y="93.325" width="51.1" height="36"/>
    <text font-size="12.8" style="fill: #000000;text-anchor:middle;font-family:monospace;font-style:normal;font-weight:normal" x="759.376" y="115.325">Tag</text>
  </g>
  <g>
    <rect style="fill: #ffffff" x="722.158" y="456.07" width="74.2" height="36"/>
    <rect style="fill: none; fill-opacity:0; stroke-width: 2; stroke: #000000" x="722.158" y="456.07" width="74.2" height="36"/>
    <text font-size="12.8" style="fill: #000000;text-anchor:middle;font-family:monospace;font-style:normal;font-weight:normal" x="759.258" y="478.07">Activo</text>
  </g>
  <g>
    <polygon style="fill: #ffffff" points="559.452,293.004 606.402,264.834 653.352,293.004 606.402,321.174 "/>
    <polygon style="fill: none; fill-opacity:0; stroke-width: 2; stroke: #000000" points="559.452,293.004 606.402,264.834 653.352,293.004 606.402,321.174 "/>
    <text font-size="12.8" style="fill: #000000;text-anchor:end;font-family:monospace;font-style:normal;font-weight:normal" x="553.452" y="287.004">1</text>
    <text font-size="12.8" style="fill: #000000;text-anchor:start;font-family:monospace;font-style:normal;font-weight:normal" x="659.352" y="287.004">N</text>
    <text font-size="12.8" style="fill: #000000;text-anchor:middle;font-family:monospace;font-style:normal;font-weight:normal" x="606.402" y="297.004">realiza</text>
  </g>
  <g>
    <polygon style="fill: #ffffff" points="704.782,204.11 759.432,171.32 814.082,204.11 759.432,236.9 "/>
    <polygon style="fill: none; fill-opacity:0; stroke-width: 2; stroke: #000000" points="704.782,204.11 759.432,171.32 814.082,204.11 759.432,236.9 "/>
    <text font-size="12.8" style="fill: #000000;text-anchor:start;font-family:monospace;font-style:normal;font-weight:normal" x="763.432" y="165.32">N</text>
    <text font-size="12.8" style="fill: #000000;text-anchor:start;font-family:monospace;font-style:normal;font-weight:normal" x="763.432" y="258.9">N</text>
    <text font-size="12.8" style="fill: #000000;text-anchor:middle;font-family:monospace;font-style:normal;font-weight:normal" x="759.432" y="208.11">clasifica</text>
  </g>
  <g>
    <polygon style="fill: #ffffff" points="852.396,293.006 887.796,271.766 923.196,293.006 887.796,314.246 "/>
    <polygon style="fill: none; fill-opacity:0; stroke-width: 2; stroke: #000000" points="852.396,293.006 887.796,271.766 923.196,293.006 887.796,314.246 "/>
    <text font-size="12.8" style="fill: #000000;text-anchor:end;font-family:monospace;font-style:normal;font-weight:normal" x="846.396" y="287.006">N</text>
    <text font-size="12.8" style="fill: #000000;text-anchor:start;font-family:monospace;font-style:normal;font-weight:normal" x="929.196" y="287.006">1</text>
    <text font-size="12.8" style="fill: #000000;text-anchor:middle;font-family:monospace;font-style:normal;font-weight:normal" x="887.796" y="297.006">move</text>
  </g>
  <g>
    <polygon style="fill: #ffffff" points="1070.26,293.004 1121.06,262.524 1171.86,293.004 1121.06,323.484 "/>
    <polygon style="fill: none; fill-opacity:0; stroke-width: 2; stroke: #000000" points="1070.26,293.004 1121.06,262.524 1171.86,293.004 1121.06,323.484 "/>
    <polygon style="fill: none; fill-opacity:0; stroke-width: 2; stroke: #000000" points="1078.26,293.004 1121.06,267.324 1163.86,293.004 1121.06,318.684 "/>
    <text font-size="12.8" style="fill: #000000;text-anchor:end;font-family:monospace;font-style:normal;font-weight:normal" x="1064.26" y="287.004">1</text>
    <text font-size="12.8" style="fill: #000000;text-anchor:start;font-family:monospace;font-style:normal;font-weight:normal" x="1177.86" y="287.004">N</text>
    <text font-size="12.8" style="fill: #000000;text-anchor:middle;font-family:monospace;font-style:normal;font-weight:normal" x="1121.06" y="297.004">divídese</text>
  </g>
  <g>
    <polygon style="fill: #ffffff" points="342.478,295.448 397.128,262.658 451.778,295.448 397.128,328.238 "/>
    <polygon style="fill: none; fill-opacity:0; stroke-width: 2; stroke: #000000" points="342.478,295.448 397.128,262.658 451.778,295.448 397.128,328.238 "/>
    <text font-size="12.8" style="fill: #000000;text-anchor:start;font-family:monospace;font-style:normal;font-weight:normal" x="401.128" y="256.658">N</text>
    <text font-size="12.8" style="fill: #000000;text-anchor:start;font-family:monospace;font-style:normal;font-weight:normal" x="401.128" y="350.238">N</text>
    <text font-size="12.8" style="fill: #000000;text-anchor:middle;font-family:monospace;font-style:normal;font-weight:normal" x="397.128" y="299.448">clasifica</text>
  </g>
  <g>
    <polygon style="fill: #ffffff" points="877.794,474.122 928.594,443.642 979.394,474.122 928.594,504.602 "/>
    <polygon style="fill: none; fill-opacity:0; stroke-width: 2; stroke: #000000" points="877.794,474.122 928.594,443.642 979.394,474.122 928.594,504.602 "/>
    <text font-size="12.8" style="fill: #000000;text-anchor:end;font-family:monospace;font-style:normal;font-weight:normal" x="871.794" y="468.122">N</text>
    <text font-size="12.8" style="fill: #000000;text-anchor:start;font-family:monospace;font-style:normal;font-weight:normal" x="985.394" y="468.122">N</text>
    <text font-size="12.8" style="fill: #000000;text-anchor:middle;font-family:monospace;font-style:normal;font-weight:normal" x="928.594" y="478.122">valorado</text>
  </g>
  <g>
    <polygon style="fill: #ffffff" points="696.916,379.322 759.266,341.912 821.616,379.322 759.266,416.732 "/>
    <polygon style="fill: none; fill-opacity:0; stroke-width: 2; stroke: #000000" points="696.916,379.322 759.266,341.912 821.616,379.322 759.266,416.732 "/>
    <text font-size="12.8" style="fill: #000000;text-anchor:start;font-family:monospace;font-style:normal;font-weight:normal" x="763.266" y="335.912">N</text>
    <text font-size="12.8" style="fill: #000000;text-anchor:start;font-family:monospace;font-style:normal;font-weight:normal" x="763.266" y="438.732">1</text>
    <text font-size="12.8" style="fill: #000000;text-anchor:middle;font-family:monospace;font-style:normal;font-weight:normal" x="759.266" y="383.322">relacionase</text>
  </g>
  <polyline style="fill: none; fill-opacity:0; stroke-width: 2; stroke: #000000" points="526.828,293.032 536.622,293.032 536.622,293.004 559.452,293.004 "/>
  <polyline style="fill: none; fill-opacity:0; stroke-width: 2; stroke: #000000" points="653.352,293.004 678.165,293.004 678.165,293 702.978,293 "/>
  <polyline style="fill: none; fill-opacity:0; stroke-width: 2; stroke: #000000" points="759.328,275 759.328,255.95 759.432,255.95 759.432,236.9 "/>
  <polyline style="fill: none; fill-opacity:0; stroke-width: 2; stroke: #000000" points="759.432,171.32 759.432,150.322 759.376,150.322 759.376,129.325 "/>
  <polyline style="fill: none; fill-opacity:0; stroke-width: 2; stroke: #000000" points="815.678,293 832.098,293 832.098,293.006 852.396,293.006 "/>
  <polyline style="fill: none; fill-opacity:0; stroke-width: 2; stroke: #000000" points="923.196,293.006 943.226,293.006 943.226,293.064 963.484,293.064 "/>
  <polyline style="fill: none; fill-opacity:0; stroke-width: 2; stroke: #000000" points="733.826,111.325 395.824,111.325 395.824,262.658 397.128,262.658 "/>
  <polyline style="fill: none; fill-opacity:0; stroke-width: 2; stroke: #000000" points="397.128,328.238 396.342,328.238 396.342,474.07 722.158,474.07 "/>
  <polyline style="fill: none; fill-opacity:0; stroke-width: 2; stroke: #000000" points="759.266,416.732 759.266,436.401 759.258,436.401 759.258,456.07 "/>
  <polyline style="fill: none; fill-opacity:0; stroke-width: 2; stroke: #000000" points="759.328,311 759.328,326.456 759.266,326.456 759.266,341.912 "/>
  <polyline style="fill: none; fill-opacity:0; stroke-width: 2; stroke: #000000" points="877.794,474.122 837.076,474.122 837.076,474.07 796.358,474.07 "/>
  <polyline style="fill: none; fill-opacity:0; stroke-width: 2; stroke: #000000" points="979.394,474.122 979.394,474.276 1000.58,474.276 1000.58,312.055 "/>
  <polyline style="fill: none; fill-opacity:0; stroke-width: 2; stroke: #000000" points="1037.68,293.064 1053.97,293.064 1053.97,293.004 1070.26,293.004 "/>
  <g>
    <polyline style="fill: none; fill-opacity:0; stroke-width: 2; stroke: #000000" points="1171.86,290.504 1188.19,290.504 1188.19,290.522 1199.52,290.522 "/>
    <polyline style="fill: none; fill-opacity:0; stroke-width: 2; stroke: #000000" points="1171.86,295.504 1183.19,295.504 1183.19,295.522 1199.52,295.522 "/>
  </g>
  <g>
    <ellipse style="fill: #ffffff" cx="1238.36" cy="251.888" rx="27.7" ry="18"/>
    <ellipse style="fill: none; fill-opacity:0; stroke-width: 2; stroke: #000000" cx="1238.36" cy="251.888" rx="27.7" ry="18"/>
    <text font-size="12.8" style="fill: #000000;text-anchor:middle;font-family:monospace;font-style:normal;font-weight:normal" x="1238.36" y="255.888">id</text>
    <line style="fill: none; fill-opacity:0; stroke-width: 2; stroke-dasharray: 6; stroke: #000000" x1="1230.66" y1="259.888" x2="1246.06" y2="259.888"/>
  </g>
  <line style="fill: none; fill-opacity:0; stroke-width: 2; stroke: #000000" x1="1239.33" y1="270.868" x2="1239.49" y2="274.042"/>
  <g>
    <ellipse style="fill: #ffffff" cx="760.084" cy="519.888" rx="27.7" ry="18"/>
    <ellipse style="fill: none; fill-opacity:0; stroke-width: 2; stroke: #000000" cx="760.084" cy="519.888" rx="27.7" ry="18"/>
    <text font-size="12.8" style="fill: #000000;text-anchor:middle;font-family:monospace;font-style:normal;font-weight:normal" x="760.084" y="523.888">id</text>
    <line style="fill: none; fill-opacity:0; stroke-width: 2; stroke: #000000" x1="752.384" y1="527.888" x2="767.784" y2="527.888"/>
  </g>
  <line style="fill: none; fill-opacity:0; stroke-width: 2; stroke: #000000" x1="759.6" y1="493.064" x2="759.742" y2="500.894"/>
  <g>
    <ellipse style="fill: #ffffff" cx="491.618" cy="249.244" rx="27.7" ry="18"/>
    <ellipse style="fill: none; fill-opacity:0; stroke-width: 2; stroke: #000000" cx="491.618" cy="249.244" rx="27.7" ry="18"/>
    <text font-size="12.8" style="fill: #000000;text-anchor:middle;font-family:monospace;font-style:normal;font-weight:normal" x="491.618" y="253.244">id</text>
    <line style="fill: none; fill-opacity:0; stroke-width: 2; stroke: #000000" x1="483.918" y1="257.244" x2="499.318" y2="257.244"/>
  </g>
  <line style="fill: none; fill-opacity:0; stroke-width: 2; stroke: #000000" x1="492.728" y1="274.035" x2="492.468" y2="268.241"/>
  <g>
    <ellipse style="fill: #ffffff" cx="823.298" cy="110.361" rx="27.7" ry="18"/>
    <ellipse style="fill: none; fill-opacity:0; stroke-width: 2; stroke: #000000" cx="823.298" cy="110.361" rx="27.7" ry="18"/>
    <text font-size="12.8" style="fill: #000000;text-anchor:middle;font-family:monospace;font-style:normal;font-weight:normal" x="823.298" y="114.361">id</text>
    <line style="fill: none; fill-opacity:0; stroke-width: 2; stroke: #000000" x1="815.598" y1="118.361" x2="830.998" y2="118.361"/>
  </g>
  <line style="fill: none; fill-opacity:0; stroke-width: 2; stroke: #000000" x1="785.922" y1="110.925" x2="794.606" y2="110.794"/>
  <g>
    <ellipse style="fill: #ffffff" cx="716.958" cy="250.816" rx="27.7" ry="18"/>
    <ellipse style="fill: none; fill-opacity:0; stroke-width: 2; stroke: #000000" cx="716.958" cy="250.816" rx="27.7" ry="18"/>
    <text font-size="12.8" style="fill: #000000;text-anchor:middle;font-family:monospace;font-style:normal;font-weight:normal" x="716.958" y="254.816">id</text>
    <line style="fill: none; fill-opacity:0; stroke-width: 2; stroke: #000000" x1="709.258" y1="258.816" x2="724.658" y2="258.816"/>
  </g>
  <g>
    <ellipse style="fill: #ffffff" cx="968.708" cy="336.398" rx="27.7" ry="18"/>
    <ellipse style="fill: none; fill-opacity:0; stroke-width: 2; stroke: #000000" cx="968.708" cy="336.398" rx="27.7" ry="18"/>
    <text font-size="12.8" style="fill: #000000;text-anchor:middle;font-family:monospace;font-style:normal;font-weight:normal" x="968.708" y="340.398">id</text>
    <line style="fill: none; fill-opacity:0; stroke-width: 2; stroke: #000000" x1="961.008" y1="344.398" x2="976.408" y2="344.398"/>
  </g>
  <line style="fill: none; fill-opacity:0; stroke-width: 2; stroke: #000000" x1="740.243" y1="273.999" x2="732.811" y2="266.599"/>
  <line style="fill: none; fill-opacity:0; stroke-width: 2; stroke: #000000" x1="986.623" y1="312.044" x2="981.237" y2="319.365"/>
  <g>
    <polygon style="fill: #ffffff" points="948.214,217.688 999.014,187.208 1049.81,217.688 999.014,248.168 "/>
    <polygon style="fill: none; fill-opacity:0; stroke-width: 2; stroke: #000000" points="948.214,217.688 999.014,187.208 1049.81,217.688 999.014,248.168 "/>
    <text font-size="12.8" style="fill: #000000;text-anchor:end;font-family:monospace;font-style:normal;font-weight:normal" x="942.214" y="211.688">N</text>
    <text font-size="12.8" style="fill: #000000;text-anchor:start;font-family:monospace;font-style:normal;font-weight:normal" x="1055.81" y="211.688">N</text>
    <text font-size="12.8" style="fill: #000000;text-anchor:middle;font-family:monospace;font-style:normal;font-weight:normal" x="999.014" y="221.688">Valor en</text>
  </g>
  <polyline style="fill: none; fill-opacity:0; stroke-width: 2; stroke: #000000" points="963.484,275.064 963.484,285.054 948.214,285.054 948.214,217.688 "/>
  <polyline style="fill: none; fill-opacity:0; stroke-width: 2; stroke: #000000" points="1037.68,275.064 1037.68,284.938 1049.81,284.938 1049.81,217.688 "/>
  <g>
    <ellipse style="fill: #ffffff" cx="882.894" cy="419.83" rx="35.4" ry="18"/>
    <ellipse style="fill: none; fill-opacity:0; stroke-width: 2; stroke: #000000" cx="882.894" cy="419.83" rx="35.4" ry="18"/>
    <text font-size="12.8" style="fill: #000000;text-anchor:middle;font-family:monospace;font-style:normal;font-weight:normal" x="882.894" y="423.83">data</text>
  </g>
  <line style="fill: none; fill-opacity:0; stroke-width: 2; stroke: #000000" x1="928.594" y1="443.642" x2="908.466" y2="433.154"/>
  <g>
    <ellipse style="fill: #ffffff" cx="963.294" cy="169.683" rx="35.4" ry="18"/>
    <ellipse style="fill: none; fill-opacity:0; stroke-width: 2; stroke: #000000" cx="963.294" cy="169.683" rx="35.4" ry="18"/>
    <text font-size="12.8" style="fill: #000000;text-anchor:middle;font-family:monospace;font-style:normal;font-weight:normal" x="963.294" y="173.683">data</text>
  </g>
  <line style="fill: none; fill-opacity:0; stroke-width: 2; stroke: #000000" x1="999.014" y1="187.208" x2="989.674" y2="182.625"/>
  <g>
    <ellipse style="fill: #ffffff" cx="958.334" cy="419.994" rx="39.25" ry="18"/>
    <ellipse style="fill: none; fill-opacity:0; stroke-width: 2; stroke: #000000" cx="958.334" cy="419.994" rx="39.25" ry="18"/>
    <text font-size="12.8" style="fill: #000000;text-anchor:middle;font-family:monospace;font-style:normal;font-weight:normal" x="958.334" y="423.994">valor</text>
  </g>
  <line style="fill: none; fill-opacity:0; stroke-width: 2; stroke: #000000" x1="928.594" y1="443.642" x2="937.939" y2="436.212"/>
  <g>
    <ellipse style="fill: #ffffff" cx="1041.12" cy="169.265" rx="39.25" ry="18"/>
    <ellipse style="fill: none; fill-opacity:0; stroke-width: 2; stroke: #000000" cx="1041.12" cy="169.265" rx="39.25" ry="18"/>
    <text font-size="12.8" style="fill: #000000;text-anchor:middle;font-family:monospace;font-style:normal;font-weight:normal" x="1041.12" y="173.265">valor</text>
  </g>
  <line style="fill: none; fill-opacity:0; stroke-width: 2; stroke: #000000" x1="999.014" y1="187.208" x2="1011.47" y2="181.898"/>
</svg>
