<?xml version="1.0" encoding="UTF-8" standalone="no"?>
<!DOCTYPE svg PUBLIC "-//W3C//DTD SVG 1.0//EN" "http://www.w3.org/TR/2001/PR-SVG-20010719/DTD/svg10.dtd">
<svg width="47cm" height="23cm" viewBox="341 91 939 453" xmlns="http://www.w3.org/2000/svg" xmlns:xlink="http://www.w3.org/1999/xlink">
  <g>
    <rect style="fill: #ffffff" x="702.978" y="275" width="112.7" height="36"/>
    <rect style="fill: none; fill-opacity:0; stroke-width: 2; stroke: #000000" x="702.978" y="275" width="112.7" height="36"/>
    <text font-size="12.7998" style="fill: #000000;text-anchor:middle;font-family:monospace;font-style:normal;font-weight:normal" x="759.328" y="297">Transacción</text>
  </g>
  <g>
    <rect style="fill: #ffffff" x="963.256" y="274.951" width="74.2" height="36"/>
    <rect style="fill: none; fill-opacity:0; stroke-width: 2; stroke: #000000" x="963.256" y="274.951" width="74.2" height="36"/>
    <text font-size="12.7998" style="fill: #000000;text-anchor:middle;font-family:monospace;font-style:normal;font-weight:normal" x="1000.36" y="296.951">Divisa</text>
  </g>
  <g>
    <rect style="fill: #ffffff" x="1197.54" y="275.015" width="81.9" height="36"/>
    <rect style="fill: none; fill-opacity:0; stroke-width: 2; stroke: #000000" x="1197.54" y="275.015" width="81.9" height="36"/>
    <rect style="fill: none; fill-opacity:0; stroke-width: 2; stroke: #000000" x="1202.54" y="280.015" width="71.9" height="26"/>
    <text font-size="12.7998" style="fill: #000000;text-anchor:middle;font-family:monospace;font-style:normal;font-weight:normal" x="1238.49" y="297.015">Céntimo</text>
  </g>
  <g>
    <rect style="fill: #ffffff" x="460.328" y="275.033" width="66.5" height="36"/>
    <rect style="fill: none; fill-opacity:0; stroke-width: 2; stroke: #000000" x="460.328" y="275.033" width="66.5" height="36"/>
    <text font-size="12.7998" style="fill: #000000;text-anchor:middle;font-family:monospace;font-style:normal;font-weight:normal" x="493.578" y="297.033">Conta</text>
  </g>
  <g>
    <rect style="fill: #ffffff" x="733.826" y="93.325" width="51.1" height="36"/>
    <rect style="fill: none; fill-opacity:0; stroke-width: 2; stroke: #000000" x="733.826" y="93.325" width="51.1" height="36"/>
    <text font-size="12.7998" style="fill: #000000;text-anchor:middle;font-family:monospace;font-style:normal;font-weight:normal" x="759.376" y="115.325">Tag</text>
  </g>
  <g>
    <rect style="fill: #ffffff" x="722.192" y="461.535" width="74.2" height="36"/>
    <rect style="fill: none; fill-opacity:0; stroke-width: 2; stroke: #000000" x="722.192" y="461.535" width="74.2" height="36"/>
    <text font-size="12.7998" style="fill: #000000;text-anchor:middle;font-family:monospace;font-style:normal;font-weight:normal" x="759.292" y="483.535">Activo</text>
  </g>
  <g>
    <polygon style="fill: #ffffff" points="559.452,293.004 606.402,264.834 653.352,293.004 606.402,321.174 "/>
    <polygon style="fill: none; fill-opacity:0; stroke-width: 2; stroke: #000000" points="559.452,293.004 606.402,264.834 653.352,293.004 606.402,321.174 "/>
    <text font-size="12.7998" style="fill: #000000;text-anchor:end;font-family:monospace;font-style:normal;font-weight:normal" x="553.452" y="287.004">1</text>
    <text font-size="12.7998" style="fill: #000000;text-anchor:start;font-family:monospace;font-style:normal;font-weight:normal" x="659.352" y="287.004">N</text>
    <text font-size="12.7998" style="fill: #000000;text-anchor:middle;font-family:monospace;font-style:normal;font-weight:normal" x="606.402" y="297.004">realiza</text>
  </g>
  <g>
    <polygon style="fill: #ffffff" points="704.782,204.11 759.432,171.32 814.082,204.11 759.432,236.9 "/>
    <polygon style="fill: none; fill-opacity:0; stroke-width: 2; stroke: #000000" points="704.782,204.11 759.432,171.32 814.082,204.11 759.432,236.9 "/>
    <text font-size="12.7998" style="fill: #000000;text-anchor:start;font-family:monospace;font-style:normal;font-weight:normal" x="763.432" y="165.32">N</text>
    <text font-size="12.7998" style="fill: #000000;text-anchor:start;font-family:monospace;font-style:normal;font-weight:normal" x="763.432" y="258.9">N</text>
    <text font-size="12.7998" style="fill: #000000;text-anchor:middle;font-family:monospace;font-style:normal;font-weight:normal" x="759.432" y="208.11">clasifica</text>
  </g>
  <g>
    <polygon style="fill: #ffffff" points="852.395,293.006 887.795,271.766 923.195,293.006 887.795,314.246 "/>
    <polygon style="fill: none; fill-opacity:0; stroke-width: 2; stroke: #000000" points="852.395,293.006 887.795,271.766 923.195,293.006 887.795,314.246 "/>
    <text font-size="12.7998" style="fill: #000000;text-anchor:end;font-family:monospace;font-style:normal;font-weight:normal" x="846.395" y="287.006">N</text>
    <text font-size="12.7998" style="fill: #000000;text-anchor:start;font-family:monospace;font-style:normal;font-weight:normal" x="929.195" y="287.006">1</text>
    <text font-size="12.7998" style="fill: #000000;text-anchor:middle;font-family:monospace;font-style:normal;font-weight:normal" x="887.795" y="297.006">move</text>
  </g>
  <g>
    <polygon style="fill: #ffffff" points="1070.26,293.003 1121.06,262.523 1171.86,293.003 1121.06,323.483 "/>
    <polygon style="fill: none; fill-opacity:0; stroke-width: 2; stroke: #000000" points="1070.26,293.003 1121.06,262.523 1171.86,293.003 1121.06,323.483 "/>
    <polygon style="fill: none; fill-opacity:0; stroke-width: 2; stroke: #000000" points="1078.26,293.003 1121.06,267.323 1163.86,293.003 1121.06,318.683 "/>
    <text font-size="12.7998" style="fill: #000000;text-anchor:end;font-family:monospace;font-style:normal;font-weight:normal" x="1064.26" y="287.003">1</text>
    <text font-size="12.7998" style="fill: #000000;text-anchor:start;font-family:monospace;font-style:normal;font-weight:normal" x="1177.86" y="287.003">1</text>
    <text font-size="12.7998" style="fill: #000000;text-anchor:middle;font-family:monospace;font-style:normal;font-weight:normal" x="1121.06" y="297.003">divídese</text>
  </g>
  <g>
    <polygon style="fill: #ffffff" points="342.479,295.449 397.129,262.659 451.779,295.449 397.129,328.239 "/>
    <polygon style="fill: none; fill-opacity:0; stroke-width: 2; stroke: #000000" points="342.479,295.449 397.129,262.659 451.779,295.449 397.129,328.239 "/>
    <text font-size="12.7998" style="fill: #000000;text-anchor:start;font-family:monospace;font-style:normal;font-weight:normal" x="401.129" y="256.659">N</text>
    <text font-size="12.7998" style="fill: #000000;text-anchor:start;font-family:monospace;font-style:normal;font-weight:normal" x="401.129" y="350.239">N</text>
    <text font-size="12.7998" style="fill: #000000;text-anchor:middle;font-family:monospace;font-style:normal;font-weight:normal" x="397.129" y="299.449">clasifica</text>
  </g>
  <g>
    <polygon style="fill: #ffffff" points="898.726,479.587 949.526,449.107 1000.33,479.587 949.526,510.067 "/>
    <polygon style="fill: none; fill-opacity:0; stroke-width: 2; stroke: #000000" points="898.726,479.587 949.526,449.107 1000.33,479.587 949.526,510.067 "/>
    <text font-size="12.7998" style="fill: #000000;text-anchor:end;font-family:monospace;font-style:normal;font-weight:normal" x="892.726" y="473.587">N</text>
    <text font-size="12.7998" style="fill: #000000;text-anchor:start;font-family:monospace;font-style:normal;font-weight:normal" x="1006.33" y="473.587">N</text>
    <text font-size="12.7998" style="fill: #000000;text-anchor:middle;font-family:monospace;font-style:normal;font-weight:normal" x="949.526" y="483.587">valorado</text>
  </g>
  <g>
    <polygon style="fill: #ffffff" points="696.916,379.322 759.266,341.912 821.616,379.322 759.266,416.732 "/>
    <polygon style="fill: none; fill-opacity:0; stroke-width: 2; stroke: #000000" points="696.916,379.322 759.266,341.912 821.616,379.322 759.266,416.732 "/>
    <text font-size="12.7998" style="fill: #000000;text-anchor:start;font-family:monospace;font-style:normal;font-weight:normal" x="763.266" y="335.912">N</text>
    <text font-size="12.7998" style="fill: #000000;text-anchor:start;font-family:monospace;font-style:normal;font-weight:normal" x="763.266" y="438.732">1</text>
    <text font-size="12.7998" style="fill: #000000;text-anchor:middle;font-family:monospace;font-style:normal;font-weight:normal" x="759.266" y="383.322">relacionase</text>
  </g>
  <polyline style="fill: none; fill-opacity:0; stroke-width: 2; stroke: #000000" points="526.828,293.033 536.621,293.033 536.621,293.004 559.452,293.004 "/>
  <g>
    <polyline style="fill: none; fill-opacity:0; stroke-width: 2; stroke: #000000" points="653.352,290.504 675.665,290.504 675.665,290.5 702.978,290.5 "/>
    <polyline style="fill: none; fill-opacity:0; stroke-width: 2; stroke: #000000" points="653.352,295.504 680.665,295.504 680.665,295.5 702.978,295.5 "/>
  </g>
  <polyline style="fill: none; fill-opacity:0; stroke-width: 2; stroke: #000000" points="759.328,275 759.328,255.95 759.432,255.95 759.432,236.9 "/>
  <polyline style="fill: none; fill-opacity:0; stroke-width: 2; stroke: #000000" points="759.432,171.32 759.432,150.322 759.376,150.322 759.376,129.325 "/>
  <g>
    <polyline style="fill: none; fill-opacity:0; stroke-width: 2; stroke: #000000" points="815.678,290.5 834.598,290.5 834.598,290.506 852.395,290.506 "/>
    <polyline style="fill: none; fill-opacity:0; stroke-width: 2; stroke: #000000" points="815.678,295.5 829.598,295.5 829.598,295.506 852.395,295.506 "/>
  </g>
  <polyline style="fill: none; fill-opacity:0; stroke-width: 2; stroke: #000000" points="923.195,293.006 943.225,293.006 943.225,292.951 963.256,292.951 "/>
  <polyline style="fill: none; fill-opacity:0; stroke-width: 2; stroke: #000000" points="733.826,111.325 395.825,111.325 395.825,262.659 397.129,262.659 "/>
  <polyline style="fill: none; fill-opacity:0; stroke-width: 2; stroke: #000000" points="397.129,328.239 396.343,328.239 396.343,479.535 722.192,479.535 "/>
  <polyline style="fill: none; fill-opacity:0; stroke-width: 2; stroke: #000000" points="759.266,416.732 759.266,439.133 759.292,439.133 759.292,461.535 "/>
  <polyline style="fill: none; fill-opacity:0; stroke-width: 2; stroke: #000000" points="759.328,311 759.328,326.456 759.266,326.456 759.266,341.912 "/>
  <polyline style="fill: none; fill-opacity:0; stroke-width: 2; stroke: #000000" points="898.726,479.587 847.559,479.587 847.559,479.535 796.392,479.535 "/>
  <polyline style="fill: none; fill-opacity:0; stroke-width: 2; stroke: #000000" points="1000.33,479.587 1000.33,395.269 1000.36,395.269 1000.36,310.951 "/>
  <polyline style="fill: none; fill-opacity:0; stroke-width: 2; stroke: #000000" points="1037.46,292.951 1053.86,292.951 1053.86,293.003 1070.26,293.003 "/>
  <polyline style="fill: none; fill-opacity:0; stroke-width: 2; stroke: #000000" points="1171.86,293.003 1184.7,293.003 1184.7,293.015 1197.54,293.015 "/>
  <g>
    <ellipse style="fill: #ffffff" cx="1238.36" cy="251.887" rx="27.7" ry="18"/>
    <ellipse style="fill: none; fill-opacity:0; stroke-width: 2; stroke: #000000" cx="1238.36" cy="251.887" rx="27.7" ry="18"/>
    <text font-size="12.7998" style="fill: #000000;text-anchor:middle;font-family:monospace;font-style:normal;font-weight:normal" x="1238.36" y="255.887">id</text>
    <line style="fill: none; fill-opacity:0; stroke-width: 2; stroke-dasharray: 6; stroke: #000000" x1="1230.66" y1="259.887" x2="1246.06" y2="259.887"/>
  </g>
  <line style="fill: none; fill-opacity:0; stroke-width: 2; stroke: #000000" x1="1238.42" y1="270.895" x2="1238.43" y2="274.007"/>
  <g>
    <ellipse style="fill: #ffffff" cx="760.118" cy="525.353" rx="27.7" ry="18"/>
    <ellipse style="fill: none; fill-opacity:0; stroke-width: 2; stroke: #000000" cx="760.118" cy="525.353" rx="27.7" ry="18"/>
    <text font-size="12.7998" style="fill: #000000;text-anchor:middle;font-family:monospace;font-style:normal;font-weight:normal" x="760.118" y="529.353">id</text>
    <line style="fill: none; fill-opacity:0; stroke-width: 2; stroke: #000000" x1="752.418" y1="533.353" x2="767.818" y2="533.353"/>
  </g>
  <line style="fill: none; fill-opacity:0; stroke-width: 2; stroke: #000000" x1="759.634" y1="498.529" x2="759.775" y2="506.359"/>
  <g>
    <ellipse style="fill: #ffffff" cx="491.619" cy="249.245" rx="27.7" ry="18"/>
    <ellipse style="fill: none; fill-opacity:0; stroke-width: 2; stroke: #000000" cx="491.619" cy="249.245" rx="27.7" ry="18"/>
    <text font-size="12.7998" style="fill: #000000;text-anchor:middle;font-family:monospace;font-style:normal;font-weight:normal" x="491.619" y="253.245">id</text>
    <line style="fill: none; fill-opacity:0; stroke-width: 2; stroke: #000000" x1="483.919" y1="257.245" x2="499.319" y2="257.245"/>
  </g>
  <line style="fill: none; fill-opacity:0; stroke-width: 2; stroke: #000000" x1="492.728" y1="274.036" x2="492.469" y2="268.242"/>
  <g>
    <ellipse style="fill: #ffffff" cx="823.299" cy="110.361" rx="27.7" ry="18"/>
    <ellipse style="fill: none; fill-opacity:0; stroke-width: 2; stroke: #000000" cx="823.299" cy="110.361" rx="27.7" ry="18"/>
    <text font-size="12.7998" style="fill: #000000;text-anchor:middle;font-family:monospace;font-style:normal;font-weight:normal" x="823.299" y="114.361">id</text>
    <line style="fill: none; fill-opacity:0; stroke-width: 2; stroke: #000000" x1="815.599" y1="118.361" x2="830.999" y2="118.361"/>
  </g>
  <line style="fill: none; fill-opacity:0; stroke-width: 2; stroke: #000000" x1="785.922" y1="110.925" x2="794.607" y2="110.794"/>
  <g>
    <ellipse style="fill: #ffffff" cx="716.958" cy="250.817" rx="27.7" ry="18"/>
    <ellipse style="fill: none; fill-opacity:0; stroke-width: 2; stroke: #000000" cx="716.958" cy="250.817" rx="27.7" ry="18"/>
    <text font-size="12.7998" style="fill: #000000;text-anchor:middle;font-family:monospace;font-style:normal;font-weight:normal" x="716.958" y="254.817">id</text>
    <line style="fill: none; fill-opacity:0; stroke-width: 2; stroke: #000000" x1="709.258" y1="258.817" x2="724.658" y2="258.817"/>
  </g>
  <g>
    <ellipse style="fill: #ffffff" cx="968.708" cy="336.398" rx="27.7" ry="18"/>
    <ellipse style="fill: none; fill-opacity:0; stroke-width: 2; stroke: #000000" cx="968.708" cy="336.398" rx="27.7" ry="18"/>
    <text font-size="12.7998" style="fill: #000000;text-anchor:middle;font-family:monospace;font-style:normal;font-weight:normal" x="968.708" y="340.398">id</text>
    <line style="fill: none; fill-opacity:0; stroke-width: 2; stroke: #000000" x1="961.008" y1="344.398" x2="976.408" y2="344.398"/>
  </g>
  <line style="fill: none; fill-opacity:0; stroke-width: 2; stroke: #000000" x1="740.243" y1="273.999" x2="732.81" y2="266.599"/>
  <line style="fill: none; fill-opacity:0; stroke-width: 2; stroke: #000000" x1="987.499" y1="310.601" x2="981.14" y2="319.331"/>
  <g>
    <polygon style="fill: #ffffff" points="948.213,217.688 999.013,187.208 1049.81,217.688 999.013,248.168 "/>
    <polygon style="fill: none; fill-opacity:0; stroke-width: 2; stroke: #000000" points="948.213,217.688 999.013,187.208 1049.81,217.688 999.013,248.168 "/>
    <text font-size="12.7998" style="fill: #000000;text-anchor:end;font-family:monospace;font-style:normal;font-weight:normal" x="942.213" y="211.688">N</text>
    <text font-size="12.7998" style="fill: #000000;text-anchor:start;font-family:monospace;font-style:normal;font-weight:normal" x="1055.81" y="211.688">N</text>
    <text font-size="12.7998" style="fill: #000000;text-anchor:middle;font-family:monospace;font-style:normal;font-weight:normal" x="999.013" y="221.688">Valor en</text>
  </g>
  <polyline style="fill: none; fill-opacity:0; stroke-width: 2; stroke: #000000" points="963.256,274.951 963.256,285.055 948.213,285.055 948.213,217.688 "/>
  <polyline style="fill: none; fill-opacity:0; stroke-width: 2; stroke: #000000" points="1037.46,274.951 1037.46,284.938 1049.81,284.938 1049.81,217.688 "/>
  <g>
    <ellipse style="fill: #ffffff" cx="949.799" cy="419.444" rx="35.4" ry="18"/>
    <ellipse style="fill: none; fill-opacity:0; stroke-width: 2; stroke: #000000" cx="949.799" cy="419.444" rx="35.4" ry="18"/>
    <text font-size="12.7998" style="fill: #000000;text-anchor:middle;font-family:monospace;font-style:normal;font-weight:normal" x="949.799" y="423.444">data</text>
  </g>
  <line style="fill: none; fill-opacity:0; stroke-width: 2; stroke: #000000" x1="949.526" y1="449.107" x2="949.626" y2="438.215"/>
</svg>
