<?xml version="1.0" encoding="UTF-8" standalone="no"?>
<!DOCTYPE svg PUBLIC "-//W3C//DTD SVG 1.0//EN" "http://www.w3.org/TR/2001/PR-SVG-20010719/DTD/svg10.dtd">
<svg width="52cm" height="25cm" viewBox="296 91 1033 499" xmlns="http://www.w3.org/2000/svg" xmlns:xlink="http://www.w3.org/1999/xlink">
  <g>
    <rect style="fill: #ffffff" x="702.978" y="275" width="112.7" height="36"/>
    <rect style="fill: none; fill-opacity:0; stroke-width: 2; stroke: #000000" x="702.978" y="275" width="112.7" height="36"/>
    <text font-size="12.7998" style="fill: #000000;text-anchor:middle;font-family:monospace;font-style:normal;font-weight:normal" x="759.328" y="297">Transacción</text>
  </g>
  <g>
    <rect style="fill: #ffffff" x="963.256" y="274.976" width="74.2" height="36"/>
    <rect style="fill: none; fill-opacity:0; stroke-width: 2; stroke: #000000" x="963.256" y="274.976" width="74.2" height="36"/>
    <text font-size="12.7998" style="fill: #000000;text-anchor:middle;font-family:monospace;font-style:normal;font-weight:normal" x="1000.36" y="296.976">Divisa</text>
  </g>
  <g>
    <rect style="fill: #ffffff" x="1246.2" y="274.964" width="81.9" height="36"/>
    <rect style="fill: none; fill-opacity:0; stroke-width: 2; stroke: #000000" x="1246.2" y="274.964" width="81.9" height="36"/>
    <rect style="fill: none; fill-opacity:0; stroke-width: 2; stroke: #000000" x="1251.2" y="279.964" width="71.9" height="26"/>
    <text font-size="12.7998" style="fill: #000000;text-anchor:middle;font-family:monospace;font-style:normal;font-weight:normal" x="1287.15" y="296.964">Céntimo</text>
  </g>
  <g>
    <rect style="fill: #ffffff" x="452.033" y="275.071" width="66.5" height="36"/>
    <rect style="fill: none; fill-opacity:0; stroke-width: 2; stroke: #000000" x="452.033" y="275.071" width="66.5" height="36"/>
    <text font-size="12.7998" style="fill: #000000;text-anchor:middle;font-family:monospace;font-style:normal;font-weight:normal" x="485.283" y="297.071">Conta</text>
  </g>
  <g>
    <rect style="fill: #ffffff" x="733.826" y="93.325" width="51.1" height="36"/>
    <rect style="fill: none; fill-opacity:0; stroke-width: 2; stroke: #000000" x="733.826" y="93.325" width="51.1" height="36"/>
    <text font-size="12.7998" style="fill: #000000;text-anchor:middle;font-family:monospace;font-style:normal;font-weight:normal" x="759.376" y="115.325">Tag</text>
  </g>
  <g>
    <rect style="fill: #ffffff" x="722.224" y="507.446" width="74.2" height="36"/>
    <rect style="fill: none; fill-opacity:0; stroke-width: 2; stroke: #000000" x="722.224" y="507.446" width="74.2" height="36"/>
    <text font-size="12.7998" style="fill: #000000;text-anchor:middle;font-family:monospace;font-style:normal;font-weight:normal" x="759.324" y="529.446">Activo</text>
  </g>
  <g>
    <polygon style="fill: #ffffff" points="559.452,293.004 606.402,264.834 653.352,293.004 606.402,321.174 "/>
    <polygon style="fill: none; fill-opacity:0; stroke-width: 2; stroke: #000000" points="559.452,293.004 606.402,264.834 653.352,293.004 606.402,321.174 "/>
    <text font-size="12.7998" style="fill: #000000;text-anchor:end;font-family:monospace;font-style:normal;font-weight:normal" x="553.452" y="287.004">1</text>
    <text font-size="12.7998" style="fill: #000000;text-anchor:start;font-family:monospace;font-style:normal;font-weight:normal" x="659.352" y="287.004">N</text>
    <text font-size="12.7998" style="fill: #000000;text-anchor:middle;font-family:monospace;font-style:normal;font-weight:normal" x="606.402" y="297.004">realiza</text>
  </g>
  <g>
    <polygon style="fill: #ffffff" points="704.782,204.11 759.432,171.32 814.082,204.11 759.432,236.9 "/>
    <polygon style="fill: none; fill-opacity:0; stroke-width: 2; stroke: #000000" points="704.782,204.11 759.432,171.32 814.082,204.11 759.432,236.9 "/>
    <text font-size="12.7998" style="fill: #000000;text-anchor:start;font-family:monospace;font-style:normal;font-weight:normal" x="763.432" y="165.32">N</text>
    <text font-size="12.7998" style="fill: #000000;text-anchor:start;font-family:monospace;font-style:normal;font-weight:normal" x="763.432" y="258.9">N</text>
    <text font-size="12.7998" style="fill: #000000;text-anchor:middle;font-family:monospace;font-style:normal;font-weight:normal" x="759.432" y="208.11">clasifica</text>
  </g>
  <g>
    <polygon style="fill: #ffffff" points="852.395,293.006 887.795,271.766 923.195,293.006 887.795,314.246 "/>
    <polygon style="fill: none; fill-opacity:0; stroke-width: 2; stroke: #000000" points="852.395,293.006 887.795,271.766 923.195,293.006 887.795,314.246 "/>
    <text font-size="12.7998" style="fill: #000000;text-anchor:end;font-family:monospace;font-style:normal;font-weight:normal" x="846.395" y="287.006">N</text>
    <text font-size="12.7998" style="fill: #000000;text-anchor:start;font-family:monospace;font-style:normal;font-weight:normal" x="929.195" y="287.006">1</text>
    <text font-size="12.7998" style="fill: #000000;text-anchor:middle;font-family:monospace;font-style:normal;font-weight:normal" x="887.795" y="297.006">move</text>
  </g>
  <g>
    <polygon style="fill: #ffffff" points="1095.2,292.941 1146,262.461 1196.8,292.941 1146,323.421 "/>
    <polygon style="fill: none; fill-opacity:0; stroke-width: 2; stroke: #000000" points="1095.2,292.941 1146,262.461 1196.8,292.941 1146,323.421 "/>
    <polygon style="fill: none; fill-opacity:0; stroke-width: 2; stroke: #000000" points="1103.2,292.941 1146,267.261 1188.8,292.941 1146,318.621 "/>
    <text font-size="12.7998" style="fill: #000000;text-anchor:end;font-family:monospace;font-style:normal;font-weight:normal" x="1089.2" y="286.941">1</text>
    <text font-size="12.7998" style="fill: #000000;text-anchor:start;font-family:monospace;font-style:normal;font-weight:normal" x="1202.8" y="286.941">1</text>
    <text font-size="12.7998" style="fill: #000000;text-anchor:middle;font-family:monospace;font-style:normal;font-weight:normal" x="1146" y="296.941">divídese</text>
  </g>
  <g>
    <polygon style="fill: #ffffff" points="311.142,294.643 365.792,261.853 420.442,294.643 365.792,327.433 "/>
    <polygon style="fill: none; fill-opacity:0; stroke-width: 2; stroke: #000000" points="311.142,294.643 365.792,261.853 420.442,294.643 365.792,327.433 "/>
    <text font-size="12.7998" style="fill: #000000;text-anchor:end;font-family:monospace;font-style:normal;font-weight:normal" x="305.142" y="288.643">N</text>
    <text font-size="12.7998" style="fill: #000000;text-anchor:start;font-family:monospace;font-style:normal;font-weight:normal" x="426.442" y="288.643">N</text>
    <text font-size="12.7998" style="fill: #000000;text-anchor:middle;font-family:monospace;font-style:normal;font-weight:normal" x="365.792" y="298.643">clasifica</text>
  </g>
  <g>
    <polygon style="fill: #ffffff" points="898.758,525.498 949.558,495.018 1000.36,525.498 949.558,555.978 "/>
    <polygon style="fill: none; fill-opacity:0; stroke-width: 2; stroke: #000000" points="898.758,525.498 949.558,495.018 1000.36,525.498 949.558,555.978 "/>
    <text font-size="12.7998" style="fill: #000000;text-anchor:end;font-family:monospace;font-style:normal;font-weight:normal" x="892.758" y="519.498">N</text>
    <text font-size="12.7998" style="fill: #000000;text-anchor:start;font-family:monospace;font-style:normal;font-weight:normal" x="1006.36" y="519.498">N</text>
    <text font-size="12.7998" style="fill: #000000;text-anchor:middle;font-family:monospace;font-style:normal;font-weight:normal" x="949.558" y="529.498">valorado</text>
  </g>
  <g>
    <polygon style="fill: #ffffff" points="696.968,415.585 759.318,378.175 821.668,415.585 759.318,452.995 "/>
    <polygon style="fill: none; fill-opacity:0; stroke-width: 2; stroke: #000000" points="696.968,415.585 759.318,378.175 821.668,415.585 759.318,452.995 "/>
    <text font-size="12.7998" style="fill: #000000;text-anchor:start;font-family:monospace;font-style:normal;font-weight:normal" x="763.318" y="372.175">N</text>
    <text font-size="12.7998" style="fill: #000000;text-anchor:start;font-family:monospace;font-style:normal;font-weight:normal" x="763.318" y="474.995">1</text>
    <text font-size="12.7998" style="fill: #000000;text-anchor:middle;font-family:monospace;font-style:normal;font-weight:normal" x="759.318" y="419.585">relacionase</text>
  </g>
  <polyline style="fill: none; fill-opacity:0; stroke-width: 2; stroke: #000000" points="518.533,293.071 536.621,293.071 536.621,293.004 559.452,293.004 "/>
  <g>
    <polyline style="fill: none; fill-opacity:0; stroke-width: 2; stroke: #000000" points="653.352,290.504 675.665,290.504 675.665,290.5 702.978,290.5 "/>
    <polyline style="fill: none; fill-opacity:0; stroke-width: 2; stroke: #000000" points="653.352,295.504 680.665,295.504 680.665,295.5 702.978,295.5 "/>
  </g>
  <polyline style="fill: none; fill-opacity:0; stroke-width: 2; stroke: #000000" points="759.328,275 759.328,255.95 759.432,255.95 759.432,236.9 "/>
  <polyline style="fill: none; fill-opacity:0; stroke-width: 2; stroke: #000000" points="759.432,171.32 759.432,150.322 759.376,150.322 759.376,129.325 "/>
  <g>
    <polyline style="fill: none; fill-opacity:0; stroke-width: 2; stroke: #000000" points="815.678,290.5 834.598,290.5 834.598,290.506 852.395,290.506 "/>
    <polyline style="fill: none; fill-opacity:0; stroke-width: 2; stroke: #000000" points="815.678,295.5 829.598,295.5 829.598,295.506 852.395,295.506 "/>
  </g>
  <polyline style="fill: none; fill-opacity:0; stroke-width: 2; stroke: #000000" points="923.195,293.006 943.225,293.006 943.225,292.976 963.256,292.976 "/>
  <polyline style="fill: none; fill-opacity:0; stroke-width: 2; stroke: #000000" points="733.826,111.325 365.79,111.325 365.79,261.853 365.792,261.853 "/>
  <polyline style="fill: none; fill-opacity:0; stroke-width: 2; stroke: #000000" points="365.792,327.433 366.308,327.433 366.308,525.446 722.224,525.446 "/>
  <polyline style="fill: none; fill-opacity:0; stroke-width: 2; stroke: #000000" points="759.318,452.995 759.318,480.22 759.324,480.22 759.324,507.446 "/>
  <polyline style="fill: none; fill-opacity:0; stroke-width: 2; stroke: #000000" points="759.328,311 759.328,344.587 759.318,344.587 759.318,378.175 "/>
  <polyline style="fill: none; fill-opacity:0; stroke-width: 2; stroke: #000000" points="898.758,525.498 847.591,525.498 847.591,525.446 796.424,525.446 "/>
  <polyline style="fill: none; fill-opacity:0; stroke-width: 2; stroke: #000000" points="1000.36,525.498 1000.36,418.237 1000.36,418.237 1000.36,310.976 "/>
  <polyline style="fill: none; fill-opacity:0; stroke-width: 2; stroke: #000000" points="1037.46,292.976 1066.33,292.976 1066.33,292.941 1095.2,292.941 "/>
  <polyline style="fill: none; fill-opacity:0; stroke-width: 2; stroke: #000000" points="1196.8,292.941 1221.5,292.941 1221.5,292.964 1246.2,292.964 "/>
  <g>
    <ellipse style="fill: #ffffff" cx="1286.54" cy="250.078" rx="27.7" ry="18"/>
    <ellipse style="fill: none; fill-opacity:0; stroke-width: 2; stroke: #000000" cx="1286.54" cy="250.078" rx="27.7" ry="18"/>
    <text font-size="12.7998" style="fill: #000000;text-anchor:middle;font-family:monospace;font-style:normal;font-weight:normal" x="1286.54" y="254.078">id</text>
    <line style="fill: none; fill-opacity:0; stroke-width: 2; stroke-dasharray: 6; stroke: #000000" x1="1278.84" y1="258.078" x2="1294.24" y2="258.078"/>
  </g>
  <line style="fill: none; fill-opacity:0; stroke-width: 2; stroke: #000000" x1="1286.81" y1="269.05" x2="1286.88" y2="273.992"/>
  <g>
    <ellipse style="fill: #ffffff" cx="760.15" cy="571.264" rx="27.7" ry="18"/>
    <ellipse style="fill: none; fill-opacity:0; stroke-width: 2; stroke: #000000" cx="760.15" cy="571.264" rx="27.7" ry="18"/>
    <text font-size="12.7998" style="fill: #000000;text-anchor:middle;font-family:monospace;font-style:normal;font-weight:normal" x="760.15" y="575.264">id</text>
    <line style="fill: none; fill-opacity:0; stroke-width: 2; stroke: #000000" x1="752.45" y1="579.264" x2="767.85" y2="579.264"/>
  </g>
  <line style="fill: none; fill-opacity:0; stroke-width: 2; stroke: #000000" x1="759.666" y1="544.44" x2="759.807" y2="552.27"/>
  <g>
    <ellipse style="fill: #ffffff" cx="483.324" cy="249.283" rx="27.7" ry="18"/>
    <ellipse style="fill: none; fill-opacity:0; stroke-width: 2; stroke: #000000" cx="483.324" cy="249.283" rx="27.7" ry="18"/>
    <text font-size="12.7998" style="fill: #000000;text-anchor:middle;font-family:monospace;font-style:normal;font-weight:normal" x="483.324" y="253.283">id</text>
    <line style="fill: none; fill-opacity:0; stroke-width: 2; stroke: #000000" x1="475.624" y1="257.283" x2="491.024" y2="257.283"/>
  </g>
  <line style="fill: none; fill-opacity:0; stroke-width: 2; stroke: #000000" x1="484.433" y1="274.074" x2="484.174" y2="268.28"/>
  <g>
    <ellipse style="fill: #ffffff" cx="823.299" cy="110.361" rx="27.7" ry="18"/>
    <ellipse style="fill: none; fill-opacity:0; stroke-width: 2; stroke: #000000" cx="823.299" cy="110.361" rx="27.7" ry="18"/>
    <text font-size="12.7998" style="fill: #000000;text-anchor:middle;font-family:monospace;font-style:normal;font-weight:normal" x="823.299" y="114.361">id</text>
    <line style="fill: none; fill-opacity:0; stroke-width: 2; stroke: #000000" x1="815.599" y1="118.361" x2="830.999" y2="118.361"/>
  </g>
  <line style="fill: none; fill-opacity:0; stroke-width: 2; stroke: #000000" x1="785.922" y1="110.925" x2="794.607" y2="110.794"/>
  <g>
    <ellipse style="fill: #ffffff" cx="716.958" cy="250.817" rx="27.7" ry="18"/>
    <ellipse style="fill: none; fill-opacity:0; stroke-width: 2; stroke: #000000" cx="716.958" cy="250.817" rx="27.7" ry="18"/>
    <text font-size="12.7998" style="fill: #000000;text-anchor:middle;font-family:monospace;font-style:normal;font-weight:normal" x="716.958" y="254.817">id</text>
    <line style="fill: none; fill-opacity:0; stroke-width: 2; stroke: #000000" x1="709.258" y1="258.817" x2="724.658" y2="258.817"/>
  </g>
  <g>
    <ellipse style="fill: #ffffff" cx="999.044" cy="249.067" rx="27.7" ry="18"/>
    <ellipse style="fill: none; fill-opacity:0; stroke-width: 2; stroke: #000000" cx="999.044" cy="249.067" rx="27.7" ry="18"/>
    <text font-size="12.7998" style="fill: #000000;text-anchor:middle;font-family:monospace;font-style:normal;font-weight:normal" x="999.044" y="253.067">id</text>
    <line style="fill: none; fill-opacity:0; stroke-width: 2; stroke: #000000" x1="991.344" y1="257.067" x2="1006.74" y2="257.067"/>
  </g>
  <line style="fill: none; fill-opacity:0; stroke-width: 2; stroke: #000000" x1="740.243" y1="273.999" x2="732.81" y2="266.599"/>
  <line style="fill: none; fill-opacity:0; stroke-width: 2; stroke: #000000" x1="999.788" y1="273.97" x2="999.612" y2="268.068"/>
</svg>
